<svg width="23" height="22" viewBox="0 0 23 22" fill="none" xmlns="http://www.w3.org/2000/svg">
<path d="M17.7868 8.90048V8.25459C17.7868 4.70825 15.0169 1.83337 11.6001 1.83337C8.18328 1.83337 5.4134 4.70825 5.4134 8.25459V8.90048C5.4134 9.6756 5.19234 10.4334 4.77808 11.0783L3.76293 12.6588C2.83569 14.1024 3.54356 16.0645 5.15626 16.521C9.37511 17.7153 13.8251 17.7153 18.0439 16.521C19.6566 16.0645 20.3645 14.1024 19.4373 12.6588L18.4221 11.0783C18.0079 10.4334 17.7868 9.6756 17.7868 8.90048Z" stroke="#7D95FF" stroke-width="1.4"/>
<path opacity="0.5" d="M7.4751 17.4166C8.07554 19.0188 9.69568 20.1666 11.6001 20.1666C13.5045 20.1666 15.1247 19.0188 15.7251 17.4166" stroke="white" stroke-width="1.4" stroke-linecap="round"/>
<path opacity="0.5" d="M11.6001 5.5V9.16667" stroke="white" stroke-width="1.4" stroke-linecap="round"/>
</svg>
