<svg width="23" height="22" viewBox="0 0 23 22" fill="none" xmlns="http://www.w3.org/2000/svg">
<path d="M12.196 19.6054L12.7984 19.962L12.196 19.6054ZM12.6929 18.7659L12.0905 18.4093L12.6929 18.7659ZM9.70681 18.7659L9.10442 19.1224V19.1224L9.70681 18.7659ZM10.2037 19.6054L10.8061 19.2489L10.2037 19.6054ZM2.38209 14.5873L3.0288 14.3195L3.0288 14.3195L2.38209 14.5873ZM7.34032 17.4089L7.32826 18.1088H7.32826L7.34032 17.4089ZM4.86257 17.0678L4.59469 17.7145L4.59469 17.7145L4.86257 17.0678ZM20.0177 14.5873L20.6644 14.8552V14.8552L20.0177 14.5873ZM15.0594 17.4089L15.0473 16.709L15.0594 17.4089ZM17.5372 17.0678L17.805 17.7145L17.805 17.7145L17.5372 17.0678ZM18.178 2.50877L17.8122 3.10562L18.178 2.50877ZM19.6911 4.02192L20.288 3.65617V3.65617L19.6911 4.02192ZM4.22175 2.50877L3.856 1.91193V1.91193L4.22175 2.50877ZM2.7086 4.02192L2.11175 3.65617L2.11175 3.65617L2.7086 4.02192ZM8.8191 17.6091L9.17103 17.004L9.17103 17.004L8.8191 17.6091ZM12.196 19.6054L12.7984 19.962L13.2953 19.1224L12.6929 18.7659L12.0905 18.4093L11.5936 19.2489L12.196 19.6054ZM9.70681 18.7659L9.10442 19.1224L9.60135 19.962L10.2037 19.6054L10.8061 19.2489L10.3092 18.4093L9.70681 18.7659ZM12.196 19.6054L11.5936 19.2489C11.4217 19.5392 10.978 19.5392 10.8061 19.2489L10.2037 19.6054L9.60135 19.962C10.3153 21.1682 12.0844 21.1682 12.7984 19.962L12.196 19.6054ZM9.82487 1.83337V2.53337H12.5749V1.83337V1.13337H9.82487V1.83337ZM20.3665 9.62504H19.6665V10.5417H20.3665H21.0665V9.62504H20.3665ZM2.0332 10.5417H2.7332V9.62504H2.0332H1.3332V10.5417H2.0332ZM2.0332 10.5417H1.3332C1.3332 11.5999 1.33282 12.4286 1.37844 13.0972C1.42448 13.772 1.51971 14.3346 1.73537 14.8552L2.38209 14.5873L3.0288 14.3195C2.89558 13.9978 2.81637 13.6054 2.77519 13.0019C2.73358 12.392 2.7332 11.6191 2.7332 10.5417H2.0332ZM7.34032 17.4089L7.35238 16.709C6.20156 16.6891 5.60071 16.6159 5.13045 16.4211L4.86257 17.0678L4.59469 17.7145C5.335 18.0212 6.17758 18.0889 7.32826 18.1088L7.34032 17.4089ZM2.38209 14.5873L1.73537 14.8552C2.2716 16.1498 3.30013 17.1783 4.59469 17.7145L4.86257 17.0678L5.13045 16.4211C4.17892 16.027 3.42294 15.271 3.0288 14.3195L2.38209 14.5873ZM20.3665 10.5417H19.6665C19.6665 11.6191 19.6662 12.392 19.6245 13.0019C19.5834 13.6054 19.5042 13.9978 19.3709 14.3195L20.0177 14.5873L20.6644 14.8552C20.88 14.3346 20.9753 13.772 21.0213 13.0972C21.0669 12.4286 21.0665 11.5999 21.0665 10.5417H20.3665ZM15.0594 17.4089L15.0714 18.1088C16.2221 18.0889 17.0647 18.0212 17.805 17.7145L17.5372 17.0678L17.2693 16.4211C16.799 16.6159 16.1982 16.6891 15.0473 16.709L15.0594 17.4089ZM20.0177 14.5873L19.3709 14.3195C18.9768 15.271 18.2208 16.027 17.2693 16.4211L17.5372 17.0678L17.805 17.7145C19.0996 17.1783 20.1281 16.1498 20.6644 14.8552L20.0177 14.5873ZM12.5749 1.83337V2.53337C14.0887 2.53337 15.175 2.53411 16.0221 2.61466C16.8588 2.69421 17.3896 2.84665 17.8122 3.10562L18.178 2.50877L18.5437 1.91193C17.8642 1.4955 17.0938 1.31024 16.1546 1.22094C15.2259 1.13264 14.0616 1.13337 12.5749 1.13337V1.83337ZM20.3665 9.62504H21.0665C21.0665 8.13827 21.0673 6.97404 20.979 6.04529C20.8897 5.10612 20.7044 4.33572 20.288 3.65617L19.6911 4.02192L19.0943 4.38767C19.3533 4.81028 19.5057 5.34111 19.5853 6.1778C19.6658 7.02491 19.6665 8.11116 19.6665 9.62504H20.3665ZM18.178 2.50877L17.8122 3.10562C18.3348 3.42582 18.7741 3.86515 19.0943 4.38767L19.6911 4.02192L20.288 3.65617C19.8523 2.94527 19.2546 2.34757 18.5437 1.91193L18.178 2.50877ZM9.82487 1.83337V1.13337C8.3381 1.13337 7.17387 1.13264 6.24512 1.22094C5.30595 1.31024 4.53555 1.4955 3.856 1.91193L4.22175 2.50877L4.5875 3.10562C5.0101 2.84665 5.54094 2.69421 6.37763 2.61466C7.22474 2.53411 8.31099 2.53337 9.82487 2.53337V1.83337ZM2.0332 9.62504H2.7332C2.7332 8.11116 2.73394 7.02491 2.81449 6.1778C2.89404 5.34111 3.04648 4.81028 3.30545 4.38767L2.7086 4.02192L2.11175 3.65617C1.69533 4.33572 1.51007 5.10612 1.42077 6.04529C1.33246 6.97404 1.3332 8.13827 1.3332 9.62504H2.0332ZM4.22175 2.50877L3.856 1.91193C3.1451 2.34757 2.5474 2.94527 2.11175 3.65617L2.7086 4.02192L3.30545 4.38767C3.62565 3.86515 4.06498 3.42582 4.5875 3.10562L4.22175 2.50877ZM9.70681 18.7659L10.3092 18.4093C10.1232 18.0951 9.95948 17.8171 9.80019 17.5985C9.63229 17.3681 9.43915 17.1599 9.17103 17.004L8.8191 17.6091L8.46716 18.2142C8.50859 18.2383 8.5666 18.2829 8.6688 18.4231C8.77962 18.5751 8.90498 18.7855 9.10442 19.1224L9.70681 18.7659ZM7.34032 17.4089L7.32826 18.1088C7.73099 18.1157 7.98526 18.1208 8.17889 18.1422C8.35954 18.1622 8.42803 18.1914 8.46716 18.2142L8.8191 17.6091L9.17103 17.004C8.9006 16.8467 8.61945 16.7825 8.33297 16.7507C8.05947 16.7205 7.72912 16.7155 7.35238 16.709L7.34032 17.4089ZM12.6929 18.7659L13.2953 19.1224C13.4947 18.7855 13.6201 18.5751 13.7309 18.4231C13.8331 18.2829 13.8911 18.2383 13.9325 18.2142L13.5806 17.6091L13.2287 17.004C12.9605 17.1599 12.7674 17.3681 12.5995 17.5985C12.4402 17.8171 12.2765 18.0951 12.0905 18.4093L12.6929 18.7659ZM15.0594 17.4089L15.0473 16.709C14.6706 16.7155 14.3402 16.7205 14.0667 16.7507C13.7803 16.7825 13.4991 16.8467 13.2287 17.004L13.5806 17.6091L13.9325 18.2142C13.9717 18.1914 14.0402 18.1622 14.2208 18.1422C14.4144 18.1208 14.6687 18.1157 15.0714 18.1088L15.0594 17.4089Z" fill="#7D95FF"/>
<path opacity="0.5" d="M7.5332 8.25H14.8665" stroke="white" stroke-width="1.4" stroke-linecap="round"/>
<path opacity="0.5" d="M7.5332 11.4584H12.5749" stroke="white" stroke-width="1.4" stroke-linecap="round"/>
</svg>
