<svg width="14" height="18" viewBox="0 0 14 18" fill="none" xmlns="http://www.w3.org/2000/svg">
<g filter="url(#filter0_b_33_1140)">
<ellipse cx="7.0857" cy="4.25978" rx="4.25978" ry="4.25978" fill="#B9DDFF" fill-opacity="0.8"/>
<path d="M11.0395 4.25978C11.0395 6.44342 9.26934 8.2136 7.0857 8.2136C4.90206 8.2136 3.13188 6.44342 3.13188 4.25978C3.13188 2.07614 4.90206 0.305948 7.0857 0.305948C9.26934 0.305948 11.0395 2.07614 11.0395 4.25978Z" stroke="url(#paint0_linear_33_1140)" stroke-width="0.611895"/>
</g>
<g filter="url(#filter1_b_33_1140)">
<path d="M6.1196e-07 14.0165C2.73984e-07 15.9495 1.567 17.5165 3.5 17.5165L10.5 17.5165C12.433 17.5165 14 15.9495 14 14.0165C14 11.4392 11.9093 9.34981 9.33196 9.34981C7.66888 9.34981 6.33112 9.34981 4.66804 9.34981C2.09071 9.34981 1.06259e-06 11.4391 6.1196e-07 14.0165Z" fill="#B9DDFF" fill-opacity="0.8"/>
<path d="M0.305948 14.0165C0.305948 15.7805 1.73597 17.2105 3.5 17.2105L10.5 17.2105C12.264 17.2105 13.6941 15.7805 13.6941 14.0165C13.6941 11.6082 11.7404 9.65576 9.33196 9.65576L9.32222 9.65576L9.31249 9.65576L9.30276 9.65576L9.29304 9.65576L9.28333 9.65576L9.27362 9.65576L9.26393 9.65576L9.25424 9.65576L9.24456 9.65576L9.23488 9.65576L9.22521 9.65576L9.21555 9.65576L9.2059 9.65576L9.19625 9.65576L9.18661 9.65576L9.17698 9.65576L9.16735 9.65576L9.15773 9.65576L9.14812 9.65576L9.13852 9.65576L9.12892 9.65576L9.11933 9.65576L9.10974 9.65576L9.10017 9.65576L9.0906 9.65576L9.08103 9.65576L9.07147 9.65576L9.06192 9.65576L9.05238 9.65576L9.04284 9.65576L9.03331 9.65576L9.02379 9.65576L9.01427 9.65576L9.00476 9.65576L8.99525 9.65576L8.98575 9.65576L8.97626 9.65576L8.96677 9.65576L8.95729 9.65576L8.94782 9.65576L8.93835 9.65576L8.92889 9.65576L8.91944 9.65576L8.90999 9.65576L8.90055 9.65576L8.89111 9.65576L8.88168 9.65576L8.87226 9.65576L8.86284 9.65576L8.85343 9.65576L8.84403 9.65576L8.83463 9.65576L8.82523 9.65576L8.81584 9.65576L8.80646 9.65576L8.79709 9.65576L8.78772 9.65576L8.77835 9.65576L8.76899 9.65576L8.75964 9.65576L8.75029 9.65576L8.74095 9.65576L8.73161 9.65576L8.72228 9.65576L8.71296 9.65576L8.70364 9.65576L8.69433 9.65576L8.68502 9.65576L8.67571 9.65576L8.66642 9.65576L8.65712 9.65576L8.64784 9.65576L8.63856 9.65576L8.62928 9.65576L8.62001 9.65576L8.61075 9.65576L8.60149 9.65576L8.59223 9.65576L8.58298 9.65576L8.57374 9.65576L8.5645 9.65576L8.55526 9.65576L8.54603 9.65576L8.53681 9.65576L8.52759 9.65576L8.51838 9.65576L8.50917 9.65576L8.49996 9.65576L8.49076 9.65576L8.48157 9.65576L8.47238 9.65576L8.46319 9.65576L8.45401 9.65576L8.44484 9.65576L8.43567 9.65576L8.4265 9.65576L8.41734 9.65576L8.40818 9.65576L8.39903 9.65576L8.38988 9.65576L8.38074 9.65576L8.3716 9.65576L8.36247 9.65576L8.35334 9.65576L8.34421 9.65576L8.33509 9.65576L8.32597 9.65576L8.31686 9.65576L8.30775 9.65576L8.29865 9.65576L8.28955 9.65576L8.28046 9.65576L8.27136 9.65576L8.26228 9.65576L8.25319 9.65576L8.24412 9.65576L8.23504 9.65576L8.22597 9.65576L8.2169 9.65576L8.20784 9.65576L8.19878 9.65576L8.18973 9.65576L8.18068 9.65576L8.17163 9.65576L8.16259 9.65576L8.15355 9.65576L8.14451 9.65576L8.13548 9.65576L8.12645 9.65576L8.11743 9.65576L8.10841 9.65576L8.09939 9.65576L8.09038 9.65576L8.08137 9.65576L8.07236 9.65576L8.06336 9.65576L8.05436 9.65576L8.04536 9.65576L8.03637 9.65576L8.02738 9.65576L8.0184 9.65576L8.00942 9.65576L8.00044 9.65576L7.99146 9.65576L7.98249 9.65576L7.97352 9.65576L7.96455 9.65576L7.95559 9.65576L7.94663 9.65576L7.93768 9.65576L7.92872 9.65576L7.91977 9.65576L7.91082 9.65576L7.90188 9.65576L7.89294 9.65576L7.884 9.65576L7.87506 9.65576L7.86613 9.65576L7.8572 9.65576L7.84828 9.65576L7.83935 9.65576L7.83043 9.65576L7.82151 9.65576L7.8126 9.65576L7.80368 9.65576L7.79477 9.65576L7.78586 9.65576L7.77696 9.65576L7.76806 9.65576L7.75915 9.65576L7.75026 9.65576L7.74136 9.65576L7.73247 9.65576L7.72358 9.65576L7.71469 9.65576L7.7058 9.65576L7.69692 9.65576L7.68804 9.65576L7.67916 9.65576L7.67028 9.65576L7.66141 9.65576L7.65254 9.65576L7.64367 9.65576L7.6348 9.65576L7.62593 9.65576L7.61707 9.65576L7.60821 9.65576L7.59935 9.65576L7.59049 9.65576L7.58163 9.65576L7.57278 9.65576L7.56393 9.65576L7.55508 9.65576L7.54623 9.65576L7.53738 9.65576L7.52854 9.65576L7.5197 9.65576L7.51085 9.65576L7.50202 9.65576L7.49318 9.65576L7.48434 9.65576L7.47551 9.65576L7.46667 9.65576L7.45784 9.65576L7.44901 9.65576L7.44018 9.65576L7.43136 9.65576L7.42253 9.65576L7.41371 9.65576L7.40488 9.65576L7.39606 9.65576L7.38724 9.65576L7.37842 9.65576L7.3696 9.65576L7.36079 9.65576L7.35197 9.65576L7.34316 9.65576L7.33434 9.65576L7.32553 9.65576L7.31672 9.65576L7.30791 9.65576L7.2991 9.65576L7.2903 9.65576L7.28149 9.65576L7.27268 9.65576L7.26388 9.65576L7.25507 9.65576L7.24627 9.65576L7.23747 9.65576L7.22867 9.65576L7.21986 9.65576L7.21106 9.65576L7.20226 9.65576L7.19347 9.65576L7.18467 9.65576L7.17587 9.65576L7.16707 9.65576L7.15828 9.65576L7.14948 9.65576L7.14069 9.65576L7.13189 9.65576L7.1231 9.65576L7.1143 9.65576L7.10551 9.65576L7.09671 9.65576L7.08792 9.65576L7.07913 9.65576L7.07034 9.65576L7.06154 9.65576L7.05275 9.65576L7.04396 9.65576L7.03517 9.65576L7.02638 9.65576L7.01758 9.65576L7.00879 9.65576L7 9.65576L6.99121 9.65576L6.98242 9.65576L6.97363 9.65576L6.96483 9.65576L6.95604 9.65576L6.94725 9.65576L6.93846 9.65576L6.92967 9.65576L6.92087 9.65576L6.91208 9.65576L6.90329 9.65576L6.89449 9.65576L6.8857 9.65576L6.87691 9.65576L6.86811 9.65576L6.85932 9.65576L6.85052 9.65576L6.84173 9.65576L6.83293 9.65576L6.82413 9.65576L6.81533 9.65576L6.80654 9.65576L6.79774 9.65576L6.78894 9.65576L6.78014 9.65576L6.77134 9.65576L6.76253 9.65576L6.75373 9.65576L6.74493 9.65576L6.73612 9.65576L6.72732 9.65576L6.71851 9.65576L6.70971 9.65576L6.7009 9.65576L6.69209 9.65576L6.68328 9.65576L6.67447 9.65576L6.66566 9.65576L6.65684 9.65576L6.64803 9.65576L6.63921 9.65576L6.6304 9.65576L6.62158 9.65576L6.61276 9.65576L6.60394 9.65576L6.59512 9.65576L6.5863 9.65576L6.57747 9.65576L6.56865 9.65576L6.55982 9.65576L6.55099 9.65576L6.54216 9.65576L6.53333 9.65576L6.5245 9.65576L6.51566 9.65576L6.50682 9.65576L6.49799 9.65576L6.48915 9.65576L6.48031 9.65576L6.47146 9.65576L6.46262 9.65576L6.45377 9.65576L6.44492 9.65576L6.43607 9.65576L6.42722 9.65576L6.41837 9.65576L6.40951 9.65576L6.40065 9.65576L6.39179 9.65576L6.38293 9.65576L6.37407 9.65576L6.3652 9.65576L6.35633 9.65576L6.34746 9.65576L6.33859 9.65576L6.32972 9.65576L6.32084 9.65576L6.31196 9.65576L6.30308 9.65576L6.2942 9.65576L6.28531 9.65576L6.27642 9.65576L6.26753 9.65576L6.25864 9.65576L6.24974 9.65576L6.24085 9.65576L6.23195 9.65576L6.22304 9.65576L6.21414 9.65576L6.20523 9.65576L6.19632 9.65576L6.18741 9.65576L6.17849 9.65576L6.16957 9.65576L6.16065 9.65576L6.15173 9.65576L6.1428 9.65576L6.13387 9.65576L6.12494 9.65576L6.116 9.65576L6.10706 9.65576L6.09812 9.65576L6.08918 9.65576L6.08023 9.65576L6.07128 9.65576L6.06233 9.65576L6.05337 9.65576L6.04441 9.65576L6.03545 9.65576L6.02648 9.65576L6.01751 9.65576L6.00854 9.65576L5.99956 9.65576L5.99059 9.65576L5.9816 9.65576L5.97262 9.65576L5.96363 9.65576L5.95464 9.65576L5.94564 9.65576L5.93664 9.65576L5.92764 9.65576L5.91863 9.65576L5.90962 9.65576L5.90061 9.65576L5.89159 9.65576L5.88257 9.65576L5.87355 9.65576L5.86452 9.65576L5.85549 9.65576L5.84645 9.65576L5.83741 9.65576L5.82837 9.65576L5.81932 9.65576L5.81027 9.65576L5.80122 9.65576L5.79216 9.65576L5.7831 9.65576L5.77403 9.65576L5.76496 9.65576L5.75589 9.65576L5.74681 9.65576L5.73773 9.65576L5.72864 9.65576L5.71955 9.65576L5.71045 9.65576L5.70135 9.65576L5.69225 9.65576L5.68314 9.65576L5.67403 9.65576L5.66491 9.65576L5.65579 9.65576L5.64667 9.65576L5.63754 9.65576L5.6284 9.65576L5.61926 9.65576L5.61012 9.65576L5.60097 9.65576L5.59182 9.65576L5.58266 9.65576L5.5735 9.65576L5.56434 9.65576L5.55516 9.65576L5.54599 9.65576L5.53681 9.65576L5.52762 9.65576L5.51843 9.65576L5.50924 9.65576L5.50004 9.65576L5.49084 9.65576L5.48163 9.65576L5.47241 9.65576L5.46319 9.65576L5.45397 9.65576L5.44474 9.65576L5.4355 9.65576L5.42627 9.65576L5.41702 9.65576L5.40777 9.65576L5.39852 9.65576L5.38926 9.65576L5.37999 9.65576L5.37072 9.65576L5.36144 9.65576L5.35216 9.65576L5.34288 9.65576L5.33358 9.65576L5.32429 9.65576L5.31498 9.65576L5.30568 9.65576L5.29636 9.65576L5.28704 9.65576L5.27772 9.65576L5.26839 9.65576L5.25905 9.65576L5.24971 9.65576L5.24036 9.65576L5.23101 9.65576L5.22165 9.65576L5.21229 9.65576L5.20292 9.65576L5.19354 9.65576L5.18416 9.65576L5.17477 9.65576L5.16538 9.65576L5.15598 9.65576L5.14657 9.65576L5.13716 9.65576L5.12774 9.65576L5.11832 9.65576L5.10889 9.65576L5.09945 9.65576L5.09001 9.65576L5.08056 9.65576L5.07111 9.65576L5.06165 9.65576L5.05218 9.65576L5.04271 9.65576L5.03323 9.65576L5.02374 9.65576L5.01425 9.65576L5.00475 9.65576L4.99525 9.65576L4.98573 9.65576L4.97622 9.65576L4.96669 9.65576L4.95716 9.65576L4.94762 9.65576L4.93808 9.65576L4.92853 9.65576L4.91897 9.65576L4.90941 9.65576L4.89984 9.65576L4.89026 9.65576L4.88067 9.65576L4.87108 9.65576L4.86148 9.65576L4.85188 9.65576L4.84227 9.65576L4.83265 9.65576L4.82302 9.65576L4.81339 9.65576L4.80375 9.65576L4.7941 9.65576L4.78445 9.65576L4.77479 9.65576L4.76512 9.65576L4.75545 9.65576L4.74576 9.65576L4.73607 9.65576L4.72638 9.65576L4.71667 9.65576L4.70696 9.65576L4.69724 9.65576L4.68752 9.65576L4.67778 9.65576L4.66804 9.65576C2.25957 9.65576 0.305949 11.6082 0.305948 14.0165Z" stroke="url(#paint1_linear_33_1140)" stroke-width="0.611895"/>
</g>
<defs>
<filter id="filter0_b_33_1140" x="-10.2885" y="-13.1144" width="34.7483" height="34.7483" filterUnits="userSpaceOnUse" color-interpolation-filters="sRGB">
<feFlood flood-opacity="0" result="BackgroundImageFix"/>
<feGaussianBlur in="BackgroundImageFix" stdDeviation="6.55719"/>
<feComposite in2="SourceAlpha" operator="in" result="effect1_backgroundBlur_33_1140"/>
<feBlend mode="normal" in="SourceGraphic" in2="effect1_backgroundBlur_33_1140" result="shape"/>
</filter>
<filter id="filter1_b_33_1140" x="-13.1144" y="-3.76453" width="40.2288" height="34.3954" filterUnits="userSpaceOnUse" color-interpolation-filters="sRGB">
<feFlood flood-opacity="0" result="BackgroundImageFix"/>
<feGaussianBlur in="BackgroundImageFix" stdDeviation="6.55719"/>
<feComposite in2="SourceAlpha" operator="in" result="effect1_backgroundBlur_33_1140"/>
<feBlend mode="normal" in="SourceGraphic" in2="effect1_backgroundBlur_33_1140" result="shape"/>
</filter>
<linearGradient id="paint0_linear_33_1140" x1="2.39995" y1="0.608539" x2="8.55869" y2="10.0146" gradientUnits="userSpaceOnUse">
<stop stop-color="white"/>
<stop offset="0.765625" stop-color="white" stop-opacity="0"/>
</linearGradient>
<linearGradient id="paint1_linear_33_1140" x1="-0.7" y1="16.9331" x2="3.5938" y2="5.69119" gradientUnits="userSpaceOnUse">
<stop stop-color="white"/>
<stop offset="0.765625" stop-color="white" stop-opacity="0"/>
</linearGradient>
</defs>
</svg>
