<?xml version="1.0" encoding="utf-8"?>
<!-- Generator: Adobe Illustrator 27.0.0, SVG Export Plug-In . SVG Version: 6.00 Build 0)  -->
<svg version="1.1" id="레이어_1" xmlns="http://www.w3.org/2000/svg" xmlns:xlink="http://www.w3.org/1999/xlink" x="0px"
	 y="0px" viewBox="0 0 425.2 98.46" style="enable-background:new 0 0 425.2 98.46;" xml:space="preserve">
<style type="text/css">
	.st0{fill:#FFFFFF;}
</style>
<g>
	<g>
		<path class="st0" d="M30.38,42.16l0.02,14.2l12.23,7.02l12.26-7.08l0.03-14.1l-6.22-3.58l-6.07-3.54L30.38,42.16z M85.22,59.77
			v-3.49l-15.13,8.74v0.06l-4.45,2.51l-2.99,1.73l-0.19,0.12l-3.9,2.24l-15.92,9.19l-0.13,0.07l-6.58-3.89l-0.9-0.48l-12.28-7.12
			l-7.53-4.33l-0.1-31.75l27.45-15.85l13.74,7.91l13.8,8l15.18-8.77L63.96,12.33L42.63,0L21.31,12.31L0,24.61l0.03,49.28l7.53,4.33
			l7.58,4.43l12.28,7.12l15.2,8.7l21.31-12.31l21.31-12.31l0.03-14.1L85.22,59.77z"/>
	</g>
	<g>
		<path class="st0" d="M145.08,79.56c-4.9,0-9.24-0.97-13-2.91c-3.77-1.94-6.73-4.62-8.89-8.04c-2.15-3.42-3.23-7.31-3.23-11.67
			c0-4.41,1.08-8.32,3.23-11.71s5.12-6.07,8.89-8.04s8.1-2.95,13-2.95c4.95,0,9.24,1.06,12.84,3.19c3.61,2.13,6.17,5.08,7.67,8.84
			l-11.87,6.14c-1.02-2.05-2.29-3.54-3.8-4.48c-1.51-0.94-3.15-1.41-4.93-1.41s-3.38,0.4-4.81,1.21c-1.43,0.81-2.57,1.97-3.43,3.47
			c-0.86,1.51-1.29,3.42-1.29,5.73c0,2.21,0.43,4.09,1.29,5.65c0.86,1.56,2.01,2.75,3.43,3.55c1.43,0.81,3.03,1.21,4.81,1.21
			s3.42-0.47,4.93-1.41s2.77-2.44,3.8-4.48l11.87,6.06c-1.51,3.77-4.07,6.72-7.67,8.84C154.31,78.5,150.03,79.56,145.08,79.56z"/>
		<path class="st0" d="M189.83,79.56c-3.55,0-6.74-0.7-9.57-2.1c-2.83-1.4-5.04-3.59-6.62-6.58c-1.59-2.99-2.38-6.8-2.38-11.43
			V34.97h15.35v21.97c0,3.39,0.63,5.83,1.9,7.31c1.26,1.48,3.06,2.22,5.37,2.22c1.51,0,2.89-0.35,4.16-1.05
			c1.26-0.7,2.25-1.82,2.95-3.35s1.05-3.49,1.05-5.86V34.97h15.35v43.86h-14.54V66.47l2.83,3.47c-1.56,3.23-3.76,5.64-6.58,7.23
			C196.25,78.76,193.17,79.56,189.83,79.56z"/>
		<path class="st0" d="M227.31,78.83V18.9h15.35v23.5l-0.81,14.46l0.16,14.46v7.51H227.31z M254.85,79.56
			c-3.93,0-7.2-0.81-9.81-2.42c-2.61-1.62-4.56-4.09-5.86-7.43c-1.29-3.34-1.94-7.59-1.94-12.76s0.69-9.42,2.06-12.76
			c1.37-3.34,3.38-5.83,6.02-7.47s5.82-2.46,9.53-2.46c3.98,0,7.61,0.93,10.86,2.79c3.26,1.86,5.84,4.47,7.75,7.84
			s2.87,7.39,2.87,12.08c0,4.63-0.96,8.63-2.87,12s-4.5,5.98-7.75,7.84C262.45,78.63,258.83,79.56,254.85,79.56z M251.62,67.36
			c1.72,0,3.27-0.4,4.64-1.21c1.37-0.81,2.48-2.01,3.31-3.59c0.83-1.59,1.25-3.46,1.25-5.61c0-2.31-0.42-4.23-1.25-5.73
			c-0.84-1.51-1.94-2.67-3.31-3.47c-1.37-0.81-2.92-1.21-4.64-1.21s-3.27,0.4-4.64,1.21c-1.37,0.81-2.48,1.97-3.31,3.47
			c-0.84,1.51-1.25,3.42-1.25,5.73c0,2.15,0.42,4.03,1.25,5.61c0.83,1.59,1.94,2.79,3.31,3.59
			C248.35,66.96,249.89,67.36,251.62,67.36z"/>
		<path class="st0" d="M306.46,79.56c-5.22,0-9.76-0.98-13.61-2.95c-3.85-1.96-6.84-4.66-8.97-8.08s-3.19-7.28-3.19-11.59
			c0-4.41,1.04-8.33,3.11-11.75c2.07-3.42,4.93-6.1,8.56-8.04c3.63-1.94,7.77-2.91,12.4-2.91c4.31,0,8.22,0.9,11.75,2.71
			c3.53,1.8,6.35,4.39,8.48,7.75c2.13,3.37,3.19,7.47,3.19,12.32c0,0.54-0.03,1.16-0.08,1.86s-0.11,1.35-0.16,1.94H293.3v-8.08
			h26.49L313.98,55c0.05-1.94-0.31-3.65-1.09-5.13s-1.85-2.63-3.19-3.43c-1.35-0.81-2.94-1.21-4.77-1.21c-1.89,0-3.53,0.4-4.93,1.21
			c-1.4,0.81-2.46,1.95-3.19,3.43s-1.09,3.22-1.09,5.21v2.34c0,2.15,0.44,4.01,1.33,5.57c0.89,1.56,2.17,2.76,3.84,3.59
			c1.67,0.84,3.66,1.25,5.98,1.25c2.21,0,4.07-0.31,5.57-0.93c1.51-0.62,3.02-1.58,4.52-2.87l8,8.48c-2.05,2.26-4.6,4-7.67,5.21
			S310.61,79.56,306.46,79.56z"/>
		<path class="st0" d="M338.93,78.83l24.96-56.54h15.75l25.04,56.54h-16.64L368.5,30.12h6.3l-19.55,48.71H338.93z M352.59,67.77
			l4.12-11.71h27.62l4.12,11.71H352.59z"/>
		<path class="st0" d="M409.21,78.83V22.29h15.99v56.54H409.21z"/>
	</g>
</g>
</svg>
