<?xml version="1.0" encoding="utf-8"?>
<!-- Generator: Adobe Illustrator 27.0.0, SVG Export Plug-In . SVG Version: 6.00 Build 0)  -->
<svg version="1.1" id="레이어_1" xmlns="http://www.w3.org/2000/svg" xmlns:xlink="http://www.w3.org/1999/xlink" x="0px"
	 y="0px" viewBox="0 0 425.2 98.5" style="enable-background:new 0 0 425.2 98.5;" xml:space="preserve">
<style type="text/css">
	.st0{fill:url(#SVGID_1_);}
	.st1{fill:#FFFFFF;}
	.st2{fill:#3163F8;}
</style>
<g>
	<g>
		
			<linearGradient id="SVGID_1_" gradientUnits="userSpaceOnUse" x1="8.995" y1="826.855" x2="78.5767" y2="757.2733" gradientTransform="matrix(1 0 0 1 0 -744)">
			<stop  offset="0" style="stop-color:#6BE9A0"/>
			<stop  offset="0.35" style="stop-color:#5DD1F6"/>
			<stop  offset="0.65" style="stop-color:#3163F8"/>
			<stop  offset="1" style="stop-color:#B786FB"/>
		</linearGradient>
		<path class="st0" d="M30.4,42.2l0,14.2l12.2,7l12.3-7.1l0-14.1l-6.2-3.6l-6.1-3.5L30.4,42.2z M85.2,59.8v-3.5L70.1,65v0.1
			l-4.4,2.5l-3,1.7l-0.2,0.1l-3.9,2.2l-15.9,9.2l-0.1,0.1l-6.6-3.9L35,76.6l-12.3-7.1l-7.5-4.3l-0.1-31.8l27.5-15.9l13.7,7.9l13.8,8
			l15.2-8.8L64,12.3L42.6,0L21.3,12.3L0,24.6l0,49.3l7.5,4.3l7.6,4.4l12.3,7.1l15.2,8.7l21.3-12.3l21.3-12.3L85.2,59.8L85.2,59.8z"
			/>
	</g>
	<g>
		<path class="st1" d="M145.1,79.6c-4.9,0-9.2-1-13-2.9c-3.8-1.9-6.7-4.6-8.9-8c-2.2-3.4-3.2-7.3-3.2-11.7c0-4.4,1.1-8.3,3.2-11.7
			s5.1-6.1,8.9-8s8.1-3,13-3c4.9,0,9.2,1.1,12.8,3.2c3.6,2.1,6.2,5.1,7.7,8.8l-11.9,6.1c-1-2-2.3-3.5-3.8-4.5
			c-1.5-0.9-3.1-1.4-4.9-1.4s-3.4,0.4-4.8,1.2c-1.4,0.8-2.6,2-3.4,3.5c-0.9,1.5-1.3,3.4-1.3,5.7c0,2.2,0.4,4.1,1.3,5.7
			c0.9,1.6,2,2.8,3.4,3.6c1.4,0.8,3,1.2,4.8,1.2s3.4-0.5,4.9-1.4s2.8-2.4,3.8-4.5l11.9,6.1c-1.5,3.8-4.1,6.7-7.7,8.8
			C154.3,78.5,150,79.6,145.1,79.6z"/>
		<path class="st1" d="M189.8,79.6c-3.6,0-6.7-0.7-9.6-2.1c-2.8-1.4-5-3.6-6.6-6.6c-1.6-3-2.4-6.8-2.4-11.4V35h15.4v22
			c0,3.4,0.6,5.8,1.9,7.3c1.3,1.5,3.1,2.2,5.4,2.2c1.5,0,2.9-0.3,4.2-1.1c1.3-0.7,2.2-1.8,2.9-3.3s1.1-3.5,1.1-5.9V35h15.4v43.9
			h-14.5V66.5l2.8,3.5c-1.6,3.2-3.8,5.6-6.6,7.2C196.2,78.8,193.2,79.6,189.8,79.6z"/>
		<path class="st1" d="M227.3,78.8V18.9h15.4v23.5l-0.8,14.5l0.2,14.5v7.5H227.3z M254.9,79.6c-3.9,0-7.2-0.8-9.8-2.4
			c-2.6-1.6-4.6-4.1-5.9-7.4c-1.3-3.3-1.9-7.6-1.9-12.8s0.7-9.4,2.1-12.8c1.4-3.3,3.4-5.8,6-7.5s5.8-2.5,9.5-2.5
			c4,0,7.6,0.9,10.9,2.8c3.3,1.9,5.8,4.5,7.8,7.8s2.9,7.4,2.9,12.1c0,4.6-1,8.6-2.9,12s-4.5,6-7.8,7.8
			C262.5,78.6,258.8,79.6,254.9,79.6z M251.6,67.4c1.7,0,3.3-0.4,4.6-1.2c1.4-0.8,2.5-2,3.3-3.6c0.8-1.6,1.2-3.5,1.2-5.6
			c0-2.3-0.4-4.2-1.2-5.7c-0.8-1.5-1.9-2.7-3.3-3.5c-1.4-0.8-2.9-1.2-4.6-1.2s-3.3,0.4-4.6,1.2c-1.4,0.8-2.5,2-3.3,3.5
			c-0.8,1.5-1.2,3.4-1.2,5.7c0,2.2,0.4,4,1.2,5.6c0.8,1.6,1.9,2.8,3.3,3.6C248.4,67,249.9,67.4,251.6,67.4z"/>
		<path class="st1" d="M306.5,79.6c-5.2,0-9.8-1-13.6-2.9c-3.9-2-6.8-4.7-9-8.1s-3.2-7.3-3.2-11.6c0-4.4,1-8.3,3.1-11.8
			c2.1-3.4,4.9-6.1,8.6-8c3.6-1.9,7.8-2.9,12.4-2.9c4.3,0,8.2,0.9,11.8,2.7c3.5,1.8,6.4,4.4,8.5,7.8c2.1,3.4,3.2,7.5,3.2,12.3
			c0,0.5,0,1.2-0.1,1.9s-0.1,1.3-0.2,1.9h-34.6v-8.1h26.5L314,55c0-1.9-0.3-3.7-1.1-5.1s-1.9-2.6-3.2-3.4c-1.4-0.8-2.9-1.2-4.8-1.2
			c-1.9,0-3.5,0.4-4.9,1.2c-1.4,0.8-2.5,2-3.2,3.4s-1.1,3.2-1.1,5.2v2.3c0,2.2,0.4,4,1.3,5.6c0.9,1.6,2.2,2.8,3.8,3.6
			c1.7,0.8,3.7,1.2,6,1.2c2.2,0,4.1-0.3,5.6-0.9c1.5-0.6,3-1.6,4.5-2.9l8,8.5c-2,2.3-4.6,4-7.7,5.2S310.6,79.6,306.5,79.6z"/>
		<path class="st2" d="M338.9,78.8l25-56.5h15.8l25,56.5H388l-19.5-48.7h6.3l-19.5,48.7H338.9z M352.6,67.8l4.1-11.7h27.6l4.1,11.7
			H352.6z"/>
		<path class="st2" d="M409.2,78.8V22.3h16v56.5H409.2z"/>
	</g>
</g>
</svg>
